{"title":"Inside.Out.2015.Arabic.720p.BluRay","uid":15467113,"size":725783211,"categoryP":"video","categoryS":"movies","magnet":"?xt=urn:btih:922eb27f2d2fa066f0986c4dc6e2e3cadaee7b95&amp;dn=Inside.Out.2015.Arabic.720p.BluRay&amp;tr=udp%3A%2F%2Ftracker.leechers-paradise.org%3A6969&amp;tr=udp%3A%2F%2Fzer0day.ch%3A1337&amp;tr=udp%3A%2F%2Fopen.demonii.com%3A1337&amp;tr=udp%3A%2F%2Ftracker.coppersurfer.tk%3A6969&amp;tr=udp%3A%2F%2Fexodus.desync.com%3A6969","seeders":1,"leechers":0,"uploader":"RioterM","files":11,"time":1470107648,"description":"Inside.Out.2015.720p.BluRay. - CimaClub.com\n\nVist us @: Www.CimaClub.com\n\n\nGeneral\nComplete name               : Inside.Out.2015.720p.BluRay. - CimaClub.com.mp4\nFormat                      : MPEG-4\nFormat profile              : Base Media / Version 2\nCodec ID                    : mp42 (isom/iso2/avc1/mp41)\nFile size                   : 690 MiB\nDuration                    : 1h 34mn\nOverall bit rate mode       : Variable\nOverall bit rate            : 1 017 Kbps\nEncoded date                : UTC 2036-02-06 06:28:16\nTagged date                 : UTC 2036-02-06 06:28:16\nWriting application         : HandBrake 0.10.2 2015060900\n\nVideo\nID                          : 1\nFormat                      : AVC\nFormat/Info                 : Advanced Video Codec\nFormat profile              :   \nFormat settings, CABAC      : Yes\nFormat settings, ReFrames   : 5 frames\nCodec ID                    : avc1\nCodec ID/Info               : Advanced Video Coding\nDuration                    : 1h 34mn\nBit rate                    : 900 Kbps\nWidth                       : 1 280 pixels\nHeight                      : 720 pixels\nDisplay aspect ratio        : 16:9\nFrame rate mode             : Variable\nFrame rate                  : 23.976 (24000/1001) fps\nMinimum frame rate          : 23.810 fps\nMaximum frame rate          : 24.390 fps\nColor space                 : YUV\nChroma subsampling          : 4:2:0\nBit depth                   : 8 bits\nScan type                   : Progressive\nBits/(Pixel*Frame)          : 0.041\nStream size                 : 609 MiB (88%)\nWriting library             : x264 core 142 r2479 dd79a61\nEncoding settings           : cabac=1 / ref=5 / deblock=1:0:0 / analyse=0x3:0x113 / me=umh / subme=8 / psy=1 / psy_rd=1.00:0.00 / mixed_ref=1 / me_range=16 / chroma_me=1 / trellis=1 / 8x8dct=1 / cqm=0 / deadzone=21,11 / fast_pskip=1 / chroma_qp_offset=-2 / threads=6 / lookahead_threads=1 / sliced_threads=0 / nr=0 / decimate=1 / interlaced=0 / bluray_compat=0 / constrained_intra=0 / bframes=3 / b_pyramid=2 / b_adapt=2 / b_bias=0 / direct=3 / weightb=1 / open_gop=0 / weightp=2 / keyint=240 / keyint_min=24 / scenecut=40 / intra_refresh=0 / rc_lookahead=50 / rc=2pass / mbtree=1 / bitrate=900 / ratetol=1.0 / qcomp=0.60 / qpmin=0 / qpmax=69 / qpstep=4 / cplxblur=20.0 / qblur=0.5 / vbv_maxrate=62500 / vbv_bufsize=78125 / nal_hrd=none / filler=0 / ip_ratio=1.40 / aq=1:1.00\nEncoded date                : UTC 2036-02-06 06:28:16\nTagged date                 : UTC 2036-02-06 06:28:16\nColor range                 : Limited\nColor primaries             : BT.709\nTransfer characteristics    : BT.709\nMatrix coefficients         : BT.709\n\nAudio\nID                          : 2\nFormat                      : AAC\nFormat/Info                 : Advanced Audio Codec\nFormat profile              : LC\nCodec ID                    : 40\nDuration                    : 1h 34mn\nBit rate mode               : Variable\nBit rate                    : 112 Kbps\nChannel(s)                  : 2 channels\nChannel positions           : Front: L R\nSampling rate               : 48.0 KHz\nFrame rate                  : 46.875 fps (1024 spf)\nCompression mode            : Lossy\nStream size                 : 76.1 MiB (11%)\nTitle                       : Stereo / Stereo\nDefault                     : Yes\nAlternate group             : 1\nEncoded date                : UTC 2036-02-06 06:28:16\nTagged date                 : UTC 2036-02-06 06:28:16\n\nEncoder: RioterM\n\nIf you like this torrent, please rate it and keep seeding!\n\nRequest @:","torrent":{"xt":"urn:btih:922eb27f2d2fa066f0986c4dc6e2e3cadaee7b95","amp;dn":"Inside.Out.2015.Arabic.720p.BluRay","amp;tr":["udp%3A%2F%2Ftracker.leechers-paradise.org%3A6969","udp%3A%2F%2Fzer0day.ch%3A1337","udp%3A%2F%2Fopen.demonii.com%3A1337","udp%3A%2F%2Ftracker.coppersurfer.tk%3A6969","udp%3A%2F%2Fexodus.desync.com%3A6969"],"infoHash":"922eb27f2d2fa066f0986c4dc6e2e3cadaee7b95","infoHashBuffer":{"type":"Buffer","data":[146,46,178,127,45,47,160,102,240,152,108,77,198,226,227,202,218,238,123,149]},"announce":[],"urlList":[]}}